<?xml version="1.0" encoding="UTF-8"?>
<!DOCTYPE svg PUBLIC "-//W3C//DTD SVG 1.1//EN" "http://www.w3.org/Graphics/SVG/1.1/DTD/svg11.dtd">
<svg xmlns="http://www.w3.org/2000/svg" version="1.1" width="340px" height="170px" style="shape-rendering:geometricPrecision; text-rendering:geometricPrecision; image-rendering:optimizeQuality; fill-rule:evenodd; clip-rule:evenodd" xmlns:xlink="http://www.w3.org/1999/xlink">
<g><path style="opacity:1" fill="#45473d" d="M -0.5,-0.5 C 112.833,-0.5 226.167,-0.5 339.5,-0.5C 339.5,22.1667 339.5,44.8333 339.5,67.5C 226.167,67.5 112.833,67.5 -0.5,67.5C -0.5,44.8333 -0.5,22.1667 -0.5,-0.5 Z"/></g>
<g><path style="opacity:1" fill="#1c1716" d="M 306.5,0.5 C 317.167,0.5 327.833,0.5 338.5,0.5C 338.5,11.1667 338.5,21.8333 338.5,32.5C 327.833,32.5 317.167,32.5 306.5,32.5C 306.5,21.8333 306.5,11.1667 306.5,0.5 Z"/></g>
<g><path style="opacity:1" fill="#1c1716" d="M 272.5,0.5 C 283.167,0.5 293.833,0.5 304.5,0.5C 304.5,11.1667 304.5,21.8333 304.5,32.5C 293.833,32.5 283.167,32.5 272.5,32.5C 272.5,21.8333 272.5,11.1667 272.5,0.5 Z"/></g>
<g><path style="opacity:1" fill="#1c1716" d="M 238.5,0.5 C 249.167,0.5 259.833,0.5 270.5,0.5C 270.5,11.1667 270.5,21.8333 270.5,32.5C 259.833,32.5 249.167,32.5 238.5,32.5C 238.5,21.8333 238.5,11.1667 238.5,0.5 Z"/></g>
<g><path style="opacity:1" fill="#1c1716" d="M 204.5,0.5 C 215.167,0.5 225.833,0.5 236.5,0.5C 236.5,11.1667 236.5,21.8333 236.5,32.5C 225.833,32.5 215.167,32.5 204.5,32.5C 204.5,21.8333 204.5,11.1667 204.5,0.5 Z"/></g>
<g><path style="opacity:1" fill="#1c1716" d="M 170.5,0.5 C 181.167,0.5 191.833,0.5 202.5,0.5C 202.5,11.1667 202.5,21.8333 202.5,32.5C 191.833,32.5 181.167,32.5 170.5,32.5C 170.5,21.8333 170.5,11.1667 170.5,0.5 Z"/></g>
<g><path style="opacity:1" fill="#1c1716" d="M 136.5,0.5 C 147.167,0.5 157.833,0.5 168.5,0.5C 168.5,11.1667 168.5,21.8333 168.5,32.5C 157.833,32.5 147.167,32.5 136.5,32.5C 136.5,21.8333 136.5,11.1667 136.5,0.5 Z"/></g>
<g><path style="opacity:1" fill="#1c1716" d="M 102.5,0.5 C 113.167,0.5 123.833,0.5 134.5,0.5C 134.5,11.1667 134.5,21.8333 134.5,32.5C 123.833,32.5 113.167,32.5 102.5,32.5C 102.5,21.8333 102.5,11.1667 102.5,0.5 Z"/></g>
<g><path style="opacity:1" fill="#1c1716" d="M 68.5,0.5 C 79.1667,0.5 89.8333,0.5 100.5,0.5C 100.5,11.1667 100.5,21.8333 100.5,32.5C 89.8333,32.5 79.1667,32.5 68.5,32.5C 68.5,21.8333 68.5,11.1667 68.5,0.5 Z"/></g>
<g><path style="opacity:1" fill="#1c1716" d="M 34.5,0.5 C 45.1667,0.5 55.8333,0.5 66.5,0.5C 66.5,11.1667 66.5,21.8333 66.5,32.5C 55.8333,32.5 45.1667,32.5 34.5,32.5C 34.5,21.8333 34.5,11.1667 34.5,0.5 Z"/></g>
<g><path style="opacity:1" fill="#1c1716" d="M 0.5,0.5 C 11.1667,0.5 21.8333,0.5 32.5,0.5C 32.5,11.1667 32.5,21.8333 32.5,32.5C 21.8333,32.5 11.1667,32.5 0.5,32.5C 0.5,21.8333 0.5,11.1667 0.5,0.5 Z"/></g>
<g><path style="opacity:1" fill="#1c1716" d="M 0.5,34.5 C 11.1667,34.5 21.8333,34.5 32.5,34.5C 32.5,45.1667 32.5,55.8333 32.5,66.5C 21.8333,66.5 11.1667,66.5 0.5,66.5C 0.5,55.8333 0.5,45.1667 0.5,34.5 Z"/></g>
<g><path style="opacity:1" fill="#1c1716" d="M 34.5,34.5 C 45.1667,34.5 55.8333,34.5 66.5,34.5C 66.5,45.1667 66.5,55.8333 66.5,66.5C 55.8333,66.5 45.1667,66.5 34.5,66.5C 34.5,55.8333 34.5,45.1667 34.5,34.5 Z"/></g>
<g><path style="opacity:1" fill="#1c1717" d="M 68.5,34.5 C 79.1667,34.5 89.8333,34.5 100.5,34.5C 100.5,45.1667 100.5,55.8333 100.5,66.5C 89.8333,66.5 79.1667,66.5 68.5,66.5C 68.5,55.8333 68.5,45.1667 68.5,34.5 Z"/></g>
<g><path style="opacity:1" fill="#1c1716" d="M 102.5,34.5 C 113.167,34.5 123.833,34.5 134.5,34.5C 134.5,45.1667 134.5,55.8333 134.5,66.5C 123.833,66.5 113.167,66.5 102.5,66.5C 102.5,55.8333 102.5,45.1667 102.5,34.5 Z"/></g>
<g><path style="opacity:1" fill="#1c1716" d="M 136.5,34.5 C 147.167,34.5 157.833,34.5 168.5,34.5C 168.5,45.1667 168.5,55.8333 168.5,66.5C 157.833,66.5 147.167,66.5 136.5,66.5C 136.5,55.8333 136.5,45.1667 136.5,34.5 Z"/></g>
<g><path style="opacity:1" fill="#1c1716" d="M 170.5,34.5 C 181.167,34.5 191.833,34.5 202.5,34.5C 202.5,45.1667 202.5,55.8333 202.5,66.5C 191.833,66.5 181.167,66.5 170.5,66.5C 170.5,55.8333 170.5,45.1667 170.5,34.5 Z"/></g>
<g><path style="opacity:1" fill="#1c1716" d="M 204.5,34.5 C 215.167,34.5 225.833,34.5 236.5,34.5C 236.5,45.1667 236.5,55.8333 236.5,66.5C 225.833,66.5 215.167,66.5 204.5,66.5C 204.5,55.8333 204.5,45.1667 204.5,34.5 Z"/></g>
<g><path style="opacity:1" fill="#1c1716" d="M 238.5,34.5 C 249.167,34.5 259.833,34.5 270.5,34.5C 270.5,45.1667 270.5,55.8333 270.5,66.5C 259.833,66.5 249.167,66.5 238.5,66.5C 238.5,55.8333 238.5,45.1667 238.5,34.5 Z"/></g>
<g><path style="opacity:1" fill="#1c1716" d="M 272.5,34.5 C 283.167,34.5 293.833,34.5 304.5,34.5C 304.5,45.1667 304.5,55.8333 304.5,66.5C 293.833,66.5 283.167,66.5 272.5,66.5C 272.5,55.8333 272.5,45.1667 272.5,34.5 Z"/></g>
<g><path style="opacity:1" fill="#1c1716" d="M 306.5,34.5 C 317.167,34.5 327.833,34.5 338.5,34.5C 338.5,45.1667 338.5,55.8333 338.5,66.5C 327.833,66.5 317.167,66.5 306.5,66.5C 306.5,55.8333 306.5,45.1667 306.5,34.5 Z"/></g>
<g><path style="opacity:1" fill="#45473d" d="M -0.5,67.5 C 112.833,67.5 226.167,67.5 339.5,67.5C 339.5,101.5 339.5,135.5 339.5,169.5C 226.167,169.5 112.833,169.5 -0.5,169.5C -0.5,135.5 -0.5,101.5 -0.5,67.5 Z"/></g>
<g><path style="opacity:1" fill="#1c1716" d="M 306.5,68.5 C 317.167,68.5 327.833,68.5 338.5,68.5C 338.5,79.1667 338.5,89.8333 338.5,100.5C 327.833,100.5 317.167,100.5 306.5,100.5C 306.5,89.8333 306.5,79.1667 306.5,68.5 Z"/></g>
<g><path style="opacity:1" fill="#1c1716" d="M 272.5,68.5 C 283.167,68.5 293.833,68.5 304.5,68.5C 304.5,79.1667 304.5,89.8333 304.5,100.5C 293.833,100.5 283.167,100.5 272.5,100.5C 272.5,89.8333 272.5,79.1667 272.5,68.5 Z"/></g>
<g><path style="opacity:1" fill="#1c1716" d="M 238.5,68.5 C 249.167,68.5 259.833,68.5 270.5,68.5C 270.5,79.1667 270.5,89.8333 270.5,100.5C 259.833,100.5 249.167,100.5 238.5,100.5C 238.5,89.8333 238.5,79.1667 238.5,68.5 Z"/></g>
<g><path style="opacity:1" fill="#1c1716" d="M 204.5,68.5 C 215.167,68.5 225.833,68.5 236.5,68.5C 236.5,79.1667 236.5,89.8333 236.5,100.5C 225.833,100.5 215.167,100.5 204.5,100.5C 204.5,89.8333 204.5,79.1667 204.5,68.5 Z"/></g>
<g><path style="opacity:1" fill="#1c1716" d="M 170.5,68.5 C 181.167,68.5 191.833,68.5 202.5,68.5C 202.5,79.1667 202.5,89.8333 202.5,100.5C 191.833,100.5 181.167,100.5 170.5,100.5C 170.5,89.8333 170.5,79.1667 170.5,68.5 Z"/></g>
<g><path style="opacity:1" fill="#1c1716" d="M 136.5,68.5 C 147.167,68.5 157.833,68.5 168.5,68.5C 168.5,79.1667 168.5,89.8333 168.5,100.5C 157.833,100.5 147.167,100.5 136.5,100.5C 136.5,89.8333 136.5,79.1667 136.5,68.5 Z"/></g>
<g><path style="opacity:1" fill="#1c1716" d="M 102.5,68.5 C 113.167,68.5 123.833,68.5 134.5,68.5C 134.5,79.1667 134.5,89.8333 134.5,100.5C 123.833,100.5 113.167,100.5 102.5,100.5C 102.5,89.8333 102.5,79.1667 102.5,68.5 Z"/></g>
<g><path style="opacity:1" fill="#1c1716" d="M 68.5,68.5 C 79.1667,68.5 89.8333,68.5 100.5,68.5C 100.5,79.1667 100.5,89.8333 100.5,100.5C 89.8333,100.5 79.1667,100.5 68.5,100.5C 68.5,89.8333 68.5,79.1667 68.5,68.5 Z"/></g>
<g><path style="opacity:1" fill="#1c1716" d="M 34.5,68.5 C 45.1667,68.5 55.8333,68.5 66.5,68.5C 66.5,79.1667 66.5,89.8333 66.5,100.5C 55.8333,100.5 45.1667,100.5 34.5,100.5C 34.5,89.8333 34.5,79.1667 34.5,68.5 Z"/></g>
<g><path style="opacity:1" fill="#1c1716" d="M 0.5,68.5 C 11.1667,68.5 21.8333,68.5 32.5,68.5C 32.5,79.1667 32.5,89.8333 32.5,100.5C 21.8333,100.5 11.1667,100.5 0.5,100.5C 0.5,89.8333 0.5,79.1667 0.5,68.5 Z"/></g>
<g><path style="opacity:1" fill="#1c1716" d="M 0.5,102.5 C 11.1667,102.5 21.8333,102.5 32.5,102.5C 32.5,113.167 32.5,123.833 32.5,134.5C 21.8333,134.5 11.1667,134.5 0.5,134.5C 0.5,123.833 0.5,113.167 0.5,102.5 Z"/></g>
<g><path style="opacity:1" fill="#1c1716" d="M 34.5,102.5 C 45.1667,102.5 55.8333,102.5 66.5,102.5C 66.5,113.167 66.5,123.833 66.5,134.5C 55.8333,134.5 45.1667,134.5 34.5,134.5C 34.5,123.833 34.5,113.167 34.5,102.5 Z"/></g>
<g><path style="opacity:1" fill="#1c1716" d="M 68.5,102.5 C 79.1667,102.5 89.8333,102.5 100.5,102.5C 100.5,113.167 100.5,123.833 100.5,134.5C 89.8333,134.5 79.1667,134.5 68.5,134.5C 68.5,123.833 68.5,113.167 68.5,102.5 Z"/></g>
<g><path style="opacity:1" fill="#1c1716" d="M 102.5,102.5 C 113.167,102.5 123.833,102.5 134.5,102.5C 134.5,113.167 134.5,123.833 134.5,134.5C 123.833,134.5 113.167,134.5 102.5,134.5C 102.5,123.833 102.5,113.167 102.5,102.5 Z"/></g>
<g><path style="opacity:1" fill="#1c1716" d="M 136.5,102.5 C 147.167,102.5 157.833,102.5 168.5,102.5C 168.5,113.167 168.5,123.833 168.5,134.5C 157.833,134.5 147.167,134.5 136.5,134.5C 136.5,123.833 136.5,113.167 136.5,102.5 Z"/></g>
<g><path style="opacity:1" fill="#1c1716" d="M 170.5,102.5 C 181.167,102.5 191.833,102.5 202.5,102.5C 202.5,113.167 202.5,123.833 202.5,134.5C 191.833,134.5 181.167,134.5 170.5,134.5C 170.5,123.833 170.5,113.167 170.5,102.5 Z"/></g>
<g><path style="opacity:1" fill="#1c1716" d="M 204.5,102.5 C 215.167,102.5 225.833,102.5 236.5,102.5C 236.5,113.167 236.5,123.833 236.5,134.5C 225.833,134.5 215.167,134.5 204.5,134.5C 204.5,123.833 204.5,113.167 204.5,102.5 Z"/></g>
<g><path style="opacity:1" fill="#1c1717" d="M 238.5,102.5 C 249.167,102.5 259.833,102.5 270.5,102.5C 270.5,113.167 270.5,123.833 270.5,134.5C 259.833,134.5 249.167,134.5 238.5,134.5C 238.5,123.833 238.5,113.167 238.5,102.5 Z"/></g>
<g><path style="opacity:1" fill="#1c1717" d="M 272.5,102.5 C 283.167,102.5 293.833,102.5 304.5,102.5C 304.5,113.167 304.5,123.833 304.5,134.5C 293.833,134.5 283.167,134.5 272.5,134.5C 272.5,123.833 272.5,113.167 272.5,102.5 Z"/></g>
<g><path style="opacity:1" fill="#1c1716" d="M 306.5,102.5 C 317.167,102.5 327.833,102.5 338.5,102.5C 338.5,113.167 338.5,123.833 338.5,134.5C 327.833,134.5 317.167,134.5 306.5,134.5C 306.5,123.833 306.5,113.167 306.5,102.5 Z"/></g>
<g><path style="opacity:1" fill="#1c1716" d="M 0.5,136.5 C 11.1667,136.5 21.8333,136.5 32.5,136.5C 32.5,147.167 32.5,157.833 32.5,168.5C 21.8333,168.5 11.1667,168.5 0.5,168.5C 0.5,157.833 0.5,147.167 0.5,136.5 Z"/></g>
<g><path style="opacity:1" fill="#1c1716" d="M 34.5,136.5 C 45.1667,136.5 55.8333,136.5 66.5,136.5C 66.5,147.167 66.5,157.833 66.5,168.5C 55.8333,168.5 45.1667,168.5 34.5,168.5C 34.5,157.833 34.5,147.167 34.5,136.5 Z"/></g>
<g><path style="opacity:1" fill="#1c1716" d="M 68.5,136.5 C 79.1667,136.5 89.8333,136.5 100.5,136.5C 100.5,147.167 100.5,157.833 100.5,168.5C 89.8333,168.5 79.1667,168.5 68.5,168.5C 68.5,157.833 68.5,147.167 68.5,136.5 Z"/></g>
<g><path style="opacity:1" fill="#1c1716" d="M 102.5,136.5 C 113.167,136.5 123.833,136.5 134.5,136.5C 134.5,147.167 134.5,157.833 134.5,168.5C 123.833,168.5 113.167,168.5 102.5,168.5C 102.5,157.833 102.5,147.167 102.5,136.5 Z"/></g>
<g><path style="opacity:1" fill="#1c1717" d="M 136.5,136.5 C 147.167,136.5 157.833,136.5 168.5,136.5C 168.5,147.167 168.5,157.833 168.5,168.5C 157.833,168.5 147.167,168.5 136.5,168.5C 136.5,157.833 136.5,147.167 136.5,136.5 Z"/></g>
<g><path style="opacity:1" fill="#1c1716" d="M 170.5,136.5 C 181.167,136.5 191.833,136.5 202.5,136.5C 202.5,147.167 202.5,157.833 202.5,168.5C 191.833,168.5 181.167,168.5 170.5,168.5C 170.5,157.833 170.5,147.167 170.5,136.5 Z"/></g>
<g><path style="opacity:1" fill="#1c1717" d="M 204.5,136.5 C 215.167,136.5 225.833,136.5 236.5,136.5C 236.5,147.167 236.5,157.833 236.5,168.5C 225.833,168.5 215.167,168.5 204.5,168.5C 204.5,157.833 204.5,147.167 204.5,136.5 Z"/></g>
<g><path style="opacity:1" fill="#1c1717" d="M 238.5,136.5 C 249.167,136.5 259.833,136.5 270.5,136.5C 270.5,147.167 270.5,157.833 270.5,168.5C 259.833,168.5 249.167,168.5 238.5,168.5C 238.5,157.833 238.5,147.167 238.5,136.5 Z"/></g>
<g><path style="opacity:1" fill="#1c1717" d="M 272.5,136.5 C 283.167,136.5 293.833,136.5 304.5,136.5C 304.5,147.167 304.5,157.833 304.5,168.5C 293.833,168.5 283.167,168.5 272.5,168.5C 272.5,157.833 272.5,147.167 272.5,136.5 Z"/></g>
<g><path style="opacity:1" fill="#1c1717" d="M 306.5,136.5 C 317.167,136.5 327.833,136.5 338.5,136.5C 338.5,147.167 338.5,157.833 338.5,168.5C 327.833,168.5 317.167,168.5 306.5,168.5C 306.5,157.833 306.5,147.167 306.5,136.5 Z"/></g>
</svg>
